<?xml version="1.0" encoding="UTF-8"?>
<!-- Generator: Adobe Illustrator 21.1.0, SVG Export Plug-In . SVG Version: 6.00 Build 0)  -->
<svg version="1.1" id="Layer_1" xmlns="http://www.w3.org/2000/svg" xmlns:xlink="http://www.w3.org/1999/xlink" x="0px" y="0px" viewBox="0 0 1217 303.1" style="enable-background:new 0 0 1217 303.1;" xml:space="preserve">
<style type="text/css">
	.st0{fill:#FFFFFF;}
	.st1{stroke:#000000;stroke-width:0.8504;stroke-miterlimit:10;}
	.st2{fill:#E84441;}
	.st3{fill:#E87941;}
	.st4{fill:#A41D2F;}
	.st5{fill:#F6AD1A;}
	.st6{fill:#A51E32;}
</style>
<g>
	<g>
		<g>
			<g>
				<path class="st0" d="M512,218.1H404.6v-11.9h-11.9v-35.8h47.7v23.9h35.8V98.8H512h11.9v107.4H512V218.1L512,218.1z"/>
				<path class="st0" d="M535.8,98.8H667v35.8h-11.9v11.9h-11.9v11.9h-11.9v11.9h-12v11.9h-11.9v11.9H667V218H535.8v-23.9h11.9      v-11.9h11.9v-11.9h11.9v-11.9h11.9v-11.9h11.9v-11.9h11.9v-11.9h-71.6V98.8H535.8z"/>
				<path class="st0" d="M726.7,194.2h83.5v23.9H679v-59.6h11.9v-11.9h35.8h35.8v-23.9H679V98.8h119.3v11.9h11.9v47.7h-11.9v11.9      h-71.6V194.2z"/>
				<path class="st0" d="M941.4,218.1H834.1v-11.9h-11.9v-95.4h11.9v-12h107.4v11.9h11.8v95.4h-11.9V218.1z M905.6,146.5v-23.9      h-35.8v71.6h35.8v-23.9V146.5z"/>
				<path class="st0" d="M965.3,98.8h47.7v119.3h-47.7V98.8z"/>
				<path class="st0" d="M1144.2,218.1h-107.4v-11.9h-11.9v-35.8h11.9v-23.9h-11.9v-35.8h11.9V98.8h107.4v11.9h11.9v35.8h-11.9v23.9      h11.9v35.8h-11.9V218.1z M1072.6,146.5h35.8v-23.9h-35.8V146.5z M1072.6,194.2h35.8v-23.9h-35.8V194.2z"/>
			</g>
			<g>
				<rect x="1096.5" y="122.6" class="st1" width="11.9" height="11.9"/>
				<rect x="1096.5" y="134.6" class="st1" width="11.9" height="11.9"/>
				<polygon class="st1" points="1084.5,122.6 1072.6,122.6 1072.6,134.5 1084.5,134.5 1084.5,134.5 1096.4,134.5 1096.4,122.6       1084.5,122.6     "/>
				<polygon class="st1" points="1084.5,134.6 1072.6,134.6 1072.6,146.5 1084.5,146.5 1084.5,146.5 1096.4,146.5 1096.4,134.6       1084.5,134.6     "/>
				<rect x="1096.5" y="170.3" class="st1" width="11.9" height="11.9"/>
				<rect x="1096.5" y="182.3" class="st1" width="11.9" height="11.9"/>
				<polygon class="st1" points="1084.5,182.3 1072.6,182.3 1072.6,194.2 1084.5,194.2 1084.5,194.2 1096.4,194.2 1096.4,182.3       1084.5,182.3     "/>
				<polygon class="st1" points="1084.5,170.3 1072.6,170.3 1072.6,182.2 1084.5,182.2 1084.5,182.2 1096.4,182.2 1096.4,170.3       1084.5,170.3     "/>
				<polygon class="st1" points="1036.8,206.1 1024.9,206.1 1024.9,206.1 1013,206.1 1013,218 1024.9,218 1024.9,218 1036.8,218           "/>
				<rect x="1132.3" y="218.1" class="st1" width="11.9" height="11.9"/>
				<polygon class="st1" points="1108.4,218.1 1096.5,218.1 1096.5,230 1108.4,230 1120.3,230 1132.2,230 1132.2,218.1       1120.3,218.1     "/>
				<polygon class="st1" points="1084.5,218.1 1072.6,218.1 1060.7,218.1 1048.8,218.1 1048.8,230 1060.7,230 1072.6,230       1084.5,230 1084.5,230 1096.4,230 1096.4,218.1 1084.5,218.1     "/>
				<rect x="1036.8" y="218.1" class="st1" width="11.9" height="11.9"/>
				<rect x="1144.2" y="206.1" class="st1" width="11.9" height="11.9"/>
				<rect x="1156.1" y="170.3" class="st1" width="11.9" height="11.9"/>
				<polygon class="st1" points="1156.1,194.2 1156.1,206.1 1168,206.1 1168,194.2 1168,182.3 1156.1,182.3     "/>
				<polygon class="st1" points="1144.2,158.4 1144.2,170.3 1156.1,170.3 1156.1,158.4 1156.1,146.5 1144.2,146.5     "/>
				<polygon class="st1" points="1156.1,110.7 1156.1,122.6 1156.1,134.5 1168,134.5 1168,122.6 1168,110.7     "/>
				<rect x="1156.1" y="134.6" class="st1" width="11.9" height="11.9"/>
				<rect x="1144.2" y="98.8" class="st1" width="11.9" height="11.9"/>
				<rect x="1132.3" y="86.8" class="st1" width="11.9" height="11.9"/>
				<polygon class="st1" points="1108.4,86.8 1096.5,86.8 1096.5,98.7 1108.4,98.7 1120.3,98.7 1132.2,98.7 1132.2,86.8       1120.3,86.8     "/>
				<polygon class="st1" points="1084.5,86.8 1072.6,86.8 1060.7,86.8 1048.8,86.8 1048.8,98.7 1060.7,98.7 1072.6,98.7       1084.5,98.7 1084.5,98.7 1096.4,98.7 1096.4,86.8 1084.5,86.8     "/>
				<rect x="1036.8" y="86.8" class="st1" width="11.9" height="11.9"/>
				<rect x="1013" y="218.1" class="st1" width="11.9" height="11.9"/>
				<polygon class="st1" points="1024.9,194.2 1024.9,182.3 1013,182.3 1013,194.2 1013,206.1 1024.9,206.1     "/>
				<polygon class="st1" points="1024.9,170.3 1036.8,170.3 1036.8,158.4 1036.8,146.5 1024.9,146.5 1024.9,134.6 1013,134.6       1013,146.5 1013,158.4 1013,170.3 1013,182.2 1024.9,182.2     "/>
				<polygon class="st1" points="1024.9,122.6 1024.9,110.7 1036.8,110.7 1036.8,98.8 1024.9,98.8 1024.9,98.8 1013,98.8       1013,110.7 1013,122.6 1013,134.5 1024.9,134.5     "/>
				<rect x="1013" y="86.8" class="st1" width="11.9" height="11.9"/>
				<polygon class="st1" points="989.1,218.1 989.1,218.1 977.2,218.1 965.3,218.1 965.3,230 977.2,230 989.1,230 989.1,230       1001,230 1012.9,230 1012.9,218.1 1001,218.1     "/>
				<polygon class="st1" points="989.1,86.8 989.1,86.8 977.2,86.8 965.3,86.8 965.3,98.7 977.2,98.7 989.1,98.7 989.1,98.7       1001,98.7 1012.9,98.7 1012.9,86.8 1001,86.8     "/>
				<rect x="953.3" y="218.1" class="st1" width="11.9" height="11.9"/>
				<polygon class="st1" points="953.3,194.2 953.3,206.1 965.2,206.1 965.2,194.2 965.2,182.3 953.3,182.3     "/>
				<polygon class="st1" points="953.3,146.5 953.3,158.4 953.3,170.3 953.3,182.2 965.2,182.2 965.2,170.3 965.2,158.4       965.2,146.5 965.2,134.6 953.3,134.6     "/>
				<rect x="953.3" y="86.8" class="st1" width="11.9" height="11.9"/>
				<polygon class="st1" points="941.4,206.1 941.4,218 953.3,218 965.2,218 965.2,206.1 953.3,206.1     "/>
				<polygon class="st1" points="941.4,98.8 941.4,110.7 953.3,110.7 953.3,122.6 953.3,134.5 965.2,134.5 965.2,122.6 965.2,110.7       965.2,98.8 953.3,98.8     "/>
				<rect x="929.5" y="218.1" class="st1" width="11.9" height="11.9"/>
				<rect x="929.5" y="86.8" class="st1" width="11.9" height="11.9"/>
				<polygon class="st1" points="905.6,218.1 905.6,218.1 893.7,218.1 881.8,218.1 881.8,230 893.7,230 905.6,230 905.6,230       917.5,230 929.4,230 929.4,218.1 917.5,218.1     "/>
				<polygon class="st1" points="905.6,86.8 905.6,86.8 893.7,86.8 881.8,86.8 881.8,98.7 893.7,98.7 905.6,98.7 905.6,98.7       917.5,98.7 929.4,98.7 929.4,86.8 917.5,86.8     "/>
				<polygon class="st1" points="905.6,194.2 905.6,182.3 893.7,182.3 881.8,182.3 881.8,194.2 893.7,194.2     "/>
				<polygon class="st1" points="893.7,146.5 893.7,158.4 893.7,170.3 893.7,182.2 905.6,182.2 905.6,170.3 905.6,158.4       905.6,146.5 905.6,134.6 893.7,134.6     "/>
				<polygon class="st1" points="905.6,134.5 905.6,122.6 893.7,122.6 881.8,122.6 881.8,134.5 893.7,134.5     "/>
				<rect x="869.8" y="182.3" class="st1" width="11.9" height="11.9"/>
				<polygon class="st1" points="869.8,146.5 869.8,158.4 869.8,170.3 869.8,182.2 881.7,182.2 881.7,170.3 881.7,158.4       881.7,146.5 881.7,134.6 869.8,134.6     "/>
				<rect x="869.8" y="122.6" class="st1" width="11.9" height="11.9"/>
				<polygon class="st1" points="857.9,218.1 857.9,218.1 846,218.1 834.1,218.1 834.1,230 846,230 857.9,230 857.9,230 869.8,230       881.7,230 881.7,218.1 869.8,218.1     "/>
				<polygon class="st1" points="857.9,86.8 857.9,86.8 846,86.8 834.1,86.8 834.1,98.7 846,98.7 857.9,98.7 857.9,98.7 869.8,98.7       881.7,98.7 881.7,86.8 869.8,86.8     "/>
				<polygon class="st1" points="822.1,110.7 810.2,110.7 810.2,122.6 810.2,134.5 822.1,134.5 822.1,122.6 822.1,110.7 834,110.7       834,98.8 822.1,98.8     "/>
				<polygon class="st1" points="822.1,206.1 810.2,206.1 810.2,218 822.1,218 822.1,218 834,218 834,206.1 822.1,206.1     "/>
				<polygon class="st1" points="810.2,206.1 822.1,206.1 822.1,194.2 822.1,182.3 810.2,182.3 798.3,182.3 798.3,194.2       810.2,194.2     "/>
				<polygon class="st1" points="810.2,182.2 822.1,182.2 822.1,170.3 822.1,158.4 822.1,146.5 822.1,134.6 810.2,134.6       810.2,146.5 810.2,158.4 798.3,158.4 798.3,170.3 810.2,170.3     "/>
				<polygon class="st1" points="798.3,218.1 798.3,230 810.2,230 822.1,230 822.1,218.1 810.2,218.1     "/>
				<rect x="798.3" y="98.8" class="st1" width="11.9" height="11.9"/>
				<polygon class="st1" points="774.4,218.1 774.4,218.1 762.5,218.1 750.6,218.1 750.6,230 762.5,230 774.4,230 774.4,230       786.3,230 798.2,230 798.2,218.1 786.3,218.1     "/>
				<polygon class="st1" points="774.4,182.3 774.4,182.3 762.5,182.3 750.6,182.3 750.6,194.2 762.5,194.2 774.4,194.2       774.4,194.2 786.3,194.2 798.2,194.2 798.2,182.3 786.3,182.3     "/>
				<polygon class="st1" points="774.4,170.3 774.4,170.3 762.5,170.3 750.6,170.3 750.6,182.2 762.5,182.2 774.4,182.2       774.4,182.2 786.3,182.2 798.2,182.2 798.2,170.3 786.3,170.3     "/>
				<polygon class="st1" points="774.4,86.8 774.4,86.8 762.5,86.8 750.6,86.8 750.6,98.7 762.5,98.7 774.4,98.7 774.4,98.7       786.3,98.7 798.2,98.7 798.2,86.8 786.3,86.8     "/>
				<rect x="750.6" y="134.6" class="st1" width="11.9" height="11.9"/>
				<rect x="750.6" y="122.6" class="st1" width="11.9" height="11.9"/>
				<polygon class="st1" points="738.6,218.1 726.7,218.1 714.8,218.1 714.8,230 726.7,230 738.6,230 738.6,230 750.5,230       750.5,218.1 738.6,218.1     "/>
				<polygon class="st1" points="738.6,182.3 726.7,182.3 726.7,194.2 738.6,194.2 738.6,194.2 750.5,194.2 750.5,182.3       738.6,182.3     "/>
				<polygon class="st1" points="738.6,170.3 726.7,170.3 726.7,182.2 738.6,182.2 738.6,182.2 750.5,182.2 750.5,170.3       738.6,170.3     "/>
				<polygon class="st1" points="738.6,134.6 726.7,134.6 714.8,134.6 714.8,146.5 726.7,146.5 738.6,146.5 738.6,146.5       750.5,146.5 750.5,134.6 738.6,134.6     "/>
				<polygon class="st1" points="738.6,122.6 726.7,122.6 714.8,122.6 714.8,134.5 726.7,134.5 738.6,134.5 738.6,134.5       750.5,134.5 750.5,122.6 738.6,122.6     "/>
				<polygon class="st1" points="738.6,86.8 726.7,86.8 714.8,86.8 714.8,98.7 726.7,98.7 738.6,98.7 738.6,98.7 750.5,98.7       750.5,86.8 738.6,86.8     "/>
				<polygon class="st1" points="690.9,218.1 690.9,218.1 679,218.1 667.1,218.1 667.1,230 679,230 690.9,230 690.9,230 702.8,230       714.7,230 714.7,218.1 702.8,218.1     "/>
				<polygon class="st1" points="690.9,134.6 690.9,146.5 679,146.5 679,158.4 690.9,158.4 690.9,146.5 702.8,146.5 714.7,146.5       714.7,134.6 702.8,134.6     "/>
				<polygon class="st1" points="690.9,122.6 690.9,122.6 679,122.6 679,110.7 679,98.8 667.1,98.8 667.1,110.7 667.1,122.6       667.1,134.5 679,134.5 690.9,134.5 690.9,134.5 702.8,134.5 714.7,134.5 714.7,122.6 702.8,122.6     "/>
				<polygon class="st1" points="690.9,86.8 690.9,86.8 679,86.8 667.1,86.8 667.1,98.7 679,98.7 690.9,98.7 690.9,98.7 702.8,98.7       714.7,98.7 714.7,86.8 702.8,86.8     "/>
				<rect x="667.1" y="206.1" class="st1" width="11.9" height="11.9"/>
				<polygon class="st1" points="679,194.2 679,182.3 667.1,182.3 667.1,194.2 667.1,206.1 679,206.1     "/>
				<polygon class="st1" points="667.1,170.3 667.1,182.2 679,182.2 679,170.3 679,158.4 667.1,158.4     "/>
				<polygon class="st1" points="655.1,146.5 643.2,146.5 643.2,158.4 655.1,158.4 655.1,146.5 667,146.5 667,134.6 655.1,134.6           "/>
				<polygon class="st1" points="655.1,218.1 643.2,218.1 631.3,218.1 631.3,230 643.2,230 655.1,230 655.1,230 667,230 667,218.1       655.1,218.1     "/>
				<polygon class="st1" points="655.1,182.3 643.2,182.3 631.3,182.3 631.3,194.2 643.2,194.2 655.1,194.2 655.1,194.2 667,194.2       667,182.3 655.1,182.3     "/>
				<polygon class="st1" points="655.1,86.8 643.2,86.8 631.3,86.8 631.3,98.7 643.2,98.7 655.1,98.7 655.1,98.7 667,98.7 667,86.8       655.1,86.8     "/>
				<rect x="631.3" y="158.4" class="st1" width="11.9" height="11.9"/>
				<rect x="619.3" y="170.3" class="st1" width="11.9" height="11.9"/>
				<polygon class="st1" points="607.4,218.1 607.4,218.1 595.5,218.1 583.6,218.1 583.6,230 595.5,230 607.4,230 607.4,230       619.3,230 631.2,230 631.2,218.1 619.3,218.1     "/>
				<polygon class="st1" points="607.4,182.3 607.4,194.2 619.3,194.2 631.2,194.2 631.2,182.3 619.3,182.3     "/>
				<polygon class="st1" points="607.4,86.8 607.4,86.8 595.5,86.8 583.6,86.8 583.6,98.7 595.5,98.7 607.4,98.7 607.4,98.7       619.3,98.7 631.2,98.7 631.2,86.8 619.3,86.8     "/>
				<polygon class="st1" points="607.4,134.5 607.4,122.6 595.5,122.6 583.6,122.6 583.6,134.5 595.5,134.5     "/>
				<rect x="583.6" y="134.6" class="st1" width="11.9" height="11.9"/>
				<polygon class="st1" points="571.6,158.4 559.7,158.4 559.7,170.3 571.6,170.3 571.6,158.4 583.5,158.4 583.5,146.5       571.6,146.5     "/>
				<polygon class="st1" points="571.6,218.1 559.7,218.1 547.8,218.1 547.8,230 559.7,230 571.6,230 571.6,230 583.5,230       583.5,218.1 571.6,218.1     "/>
				<polygon class="st1" points="571.6,122.6 559.7,122.6 547.8,122.6 547.8,134.5 559.7,134.5 571.6,134.5 571.6,134.5       583.5,134.5 583.5,122.6 571.6,122.6     "/>
				<polygon class="st1" points="571.6,86.8 559.7,86.8 547.8,86.8 547.8,98.7 559.7,98.7 571.6,98.7 571.6,98.7 583.5,98.7       583.5,86.8 571.6,86.8     "/>
				<rect x="547.8" y="170.3" class="st1" width="11.9" height="11.9"/>
				<polygon class="st1" points="523.9,218.1 523.9,230 535.8,230 547.7,230 547.7,218.1 535.8,218.1     "/>
				<polygon class="st1" points="523.9,182.3 523.9,194.2 523.9,206.1 535.8,206.1 535.8,194.2 547.7,194.2 547.7,182.3       535.8,182.3     "/>
				<polygon class="st1" points="535.8,170.3 535.8,158.4 535.8,146.5 535.8,134.6 523.9,134.6 523.9,146.5 523.9,158.4       523.9,170.3 523.9,182.2 535.8,182.2     "/>
				<polygon class="st1" points="535.8,110.7 535.8,98.8 523.9,98.8 523.9,110.7 523.9,122.6 523.9,134.5 535.8,134.5 547.7,134.5       547.7,122.6 535.8,122.6     "/>
				<polygon class="st1" points="523.9,86.8 523.9,86.8 512,86.8 500.1,86.8 500.1,98.7 512,98.7 523.9,98.7 523.9,98.7 535.8,98.7       547.7,98.7 547.7,86.8 535.8,86.8     "/>
				<polygon class="st1" points="523.9,218 535.8,218 535.8,206.1 523.9,206.1 523.9,206.1 512,206.1 512,218 523.9,218     "/>
				<rect x="500.1" y="218.1" class="st1" width="11.9" height="11.9"/>
				<polygon class="st1" points="476.2,218.1 464.3,218.1 464.3,230 476.2,230 488.1,230 500,230 500,218.1 488.1,218.1     "/>
				<polygon class="st1" points="476.2,86.8 464.3,86.8 464.3,98.7 476.2,98.7 488.1,98.7 500,98.7 500,86.8 488.1,86.8     "/>
				<rect x="464.3" y="182.3" class="st1" width="11.9" height="11.9"/>
				<polygon class="st1" points="476.2,170.3 476.2,158.4 476.2,146.5 476.2,134.6 464.3,134.6 464.3,146.5 464.3,158.4       464.3,170.3 464.3,182.2 476.2,182.2     "/>
				<polygon class="st1" points="476.2,122.6 476.2,110.7 476.2,98.8 464.3,98.8 464.3,110.7 464.3,122.6 464.3,134.5 476.2,134.5           "/>
				<polygon class="st1" points="440.4,218.1 428.5,218.1 416.6,218.1 416.6,230 428.5,230 440.4,230 452.3,230 464.2,230       464.2,218.1 452.3,218.1     "/>
				<polygon class="st1" points="440.4,182.3 440.4,194.2 452.3,194.2 464.2,194.2 464.2,182.3 452.3,182.3     "/>
				<polygon class="st1" points="440.4,170.3 440.4,182.2 452.3,182.2 452.3,170.3 452.3,158.4 440.4,158.4 428.5,158.4       416.6,158.4 416.6,170.3 428.5,170.3     "/>
				<rect x="404.6" y="218.1" class="st1" width="11.9" height="11.9"/>
				<rect x="392.7" y="206.1" class="st1" width="11.9" height="11.9"/>
				<polygon class="st1" points="392.7,158.4 392.7,170.3 404.6,170.3 416.5,170.3 416.5,158.4 404.6,158.4     "/>
				<polygon class="st1" points="392.7,194.2 392.7,182.3 380.8,182.3 380.8,194.2 380.8,206.1 392.7,206.1     "/>
				<rect x="380.8" y="170.3" class="st1" width="11.9" height="11.9"/>
			</g>
		</g>
	</g>
	<g>
		<g>
			<path d="M342.4,33.2h-9.5h-9.5H314h-9.5v9.5h-9.5h-9.5h-9.5h-9.5v9.5h-9.5h-9.5h-9.5h-9.5h-9.5v9.5h-9.5h-9.5h-9.5h-9.5v9.5H172     h-9.5h-9.5h-9.5v-9.5h-9.5h-9.5h-9.5v-9.5h-9.5h-9.5h-9.5v-9.5h-9.5h-9.5h-9.5v9.5v9.5v9.5v9.5h9.5V90v9.5h9.5v9.5v9.5h9.5v9.5     v9.5h9.5v9.5h9.5v9.5h-9.5v9.5v9.5h-9.5v9.5v9.5h-9.5v9.5h-9.5v9.5v9.5h-9.5v9.5v9.5H49v9.5v9.5v9.5h9.5h9.5h9.5h9.5v-9.5h9.5     h9.5h9.5v-9.5h9.5h9.5h9.5v-9.5h9.5v9.5h9.5v9.5h9.5h9.5h9.5v9.5h9.5h9.5h9.5h9.5h9.5h9.5h9.5h9.5h9.5h9.5h9.5h9.5h9.5h9.5h9.5     h9.5h9.5v-9.5v-9.5v-9.5h-9.5V232h-9.5v-9.5h-9.5v-9.5H314v-9.5h-9.5v-9.5h9.5v-9.5h9.5v-9.5v-9.5v-9.5v-9.5v-9.5h9.5v-9.5v-9.5     V109v-9.5V90v-9.5h9.5v-9.5v-9.5h9.5v-9.5v-9.5v-9.5H342.4z M342.4,52.2h-9.5v9.5v9.5h-9.5v9.5V90v9.5v9.5v9.5v9.5H314v9.5v9.5     v9.5v9.5v9.5h-9.5v9.5h-9.5v9.5v9.5v9.5h9.5v9.5h9.5v9.5h9.5v9.5h9.5v9.5h9.5v9.5h-9.5h-9.5H314h-9.5h-9.5h-9.5h-9.5h-9.5h-9.5     h-9.5h-9.5h-9.5h-9.5h-9.5h-9.5v-9.5h-9.5h-9.5H172v-9.5h-9.5V232h-9.5h-9.5h-9.5v9.5h-9.5h-9.5h-9.5v9.5h-9.5h-9.5h-9.5v9.5     h-9.5h-9.5v-9.5h9.5v-9.5V232h9.5v-9.5v-9.5h9.5v-9.5h9.5v-9.5v-9.5h9.5v-9.5v-9.5h9.5v-9.5v-9.5v-9.5h-9.5v-9.5h-9.5v-9.5V109     h-9.5v-9.5V90h-9.5v-9.5v-9.5h-9.5v-9.5v-9.5h9.5v9.5h9.5h9.5h9.5v9.5h9.5h9.5h9.5v9.5h9.5h9.5h9.5h9.5h9.5h9.5v-9.5h9.5h9.5h9.5     h9.5v-9.5h9.5h9.5h9.5h9.5h9.5v-9.5h9.5h9.5h9.5h9.5v-9.5h9.5h9.5h9.5V52.2z"/>
			<rect x="332.9" y="250.9" class="st2" width="9.5" height="9.5"/>
			<polygon class="st3" points="323.4,42.7 323.4,52.2 314,52.2 314,61.6 304.5,61.6 295.1,61.6 295.1,71.1 285.6,71.1 285.6,80.6      276.1,80.6 276.1,90 266.7,90 266.7,99.5 257.2,99.5 257.2,109 247.7,109 238.3,109 238.3,118.4 228.8,118.4 228.8,127.9      238.3,127.9 238.3,137.4 247.7,137.4 247.7,146.8 257.2,146.8 257.2,156.3 266.7,156.3 266.7,165.7 276.1,165.7 276.1,175.2      285.6,175.2 285.6,184.7 295.1,184.7 304.5,184.7 304.5,175.2 314,175.2 314,165.7 314,156.3 314,146.8 314,137.4 314,127.9      323.4,127.9 323.4,118.4 323.4,109 323.4,99.5 323.4,90 323.4,80.6 323.4,71.1 332.9,71.1 332.9,61.6 332.9,52.2 342.4,52.2      342.4,42.7 332.9,42.7    "/>
			<polygon class="st4" points="314,250.9 314,241.5 304.5,241.5 304.5,232 295.1,232 285.6,232 285.6,222.5 276.1,222.5      276.1,213.1 266.7,213.1 266.7,203.6 257.2,203.6 247.7,203.6 247.7,194.1 238.3,194.1 238.3,184.7 228.8,184.7 228.8,175.2      219.3,175.2 209.9,175.2 209.9,165.7 200.4,165.7 200.4,156.3 190.9,156.3 181.5,156.3 181.5,165.7 172,165.7 172,175.2      162.5,175.2 162.5,184.7 153.1,184.7 153.1,194.1 143.6,194.1 143.6,203.6 134.2,203.6 134.2,213.1 143.6,213.1 143.6,222.5      153.1,222.5 153.1,232 162.5,232 162.5,241.5 172,241.5 172,250.9 181.5,250.9 190.9,250.9 200.4,250.9 200.4,260.4 209.9,260.4      219.3,260.4 228.8,260.4 238.3,260.4 247.7,260.4 257.2,260.4 266.7,260.4 276.1,260.4 285.6,260.4 295.1,260.4 304.5,260.4      314,260.4 323.4,260.4 332.9,260.4 332.9,250.9 323.4,250.9    "/>
			<rect x="314" y="42.7" class="st5" width="9.5" height="9.5"/>
			<polygon class="st2" points="285.6,175.2 276.1,175.2 276.1,165.7 266.7,165.7 266.7,156.3 257.2,156.3 257.2,146.8 247.7,146.8      247.7,137.4 238.3,137.4 238.3,127.9 228.8,127.9 219.3,127.9 219.3,137.4 209.9,137.4 200.4,137.4 200.4,146.8 190.9,146.8      190.9,156.3 200.4,156.3 200.4,165.7 209.9,165.7 209.9,175.2 219.3,175.2 228.8,175.2 228.8,184.7 238.3,184.7 238.3,194.1      247.7,194.1 247.7,203.6 257.2,203.6 266.7,203.6 266.7,213.1 276.1,213.1 276.1,222.5 285.6,222.5 285.6,232 295.1,232      304.5,232 304.5,241.5 314,241.5 314,250.9 323.4,250.9 332.9,250.9 332.9,241.5 323.4,241.5 323.4,232 314,232 314,222.5      304.5,222.5 304.5,213.1 295.1,213.1 295.1,203.6 295.1,194.1 295.1,184.7 285.6,184.7    "/>
			<polygon class="st3" points="143.6,222.5 143.6,213.1 134.2,213.1 134.2,203.6 124.7,203.6 124.7,213.1 115.2,213.1 115.2,222.5      105.8,222.5 96.3,222.5 96.3,232 86.8,232 86.8,241.5 77.4,241.5 77.4,250.9 86.8,250.9 96.3,250.9 105.8,250.9 105.8,241.5      115.2,241.5 124.7,241.5 134.2,241.5 134.2,232 143.6,232 153.1,232 153.1,222.5    "/>
			<polygon class="st6" points="124.7,127.9 124.7,118.4 134.2,118.4 134.2,109 124.7,109 124.7,99.5 115.2,99.5 115.2,90 105.8,90      96.3,90 96.3,80.6 86.8,80.6 86.8,71.1 77.4,71.1 77.4,80.6 77.4,90 86.8,90 86.8,99.5 86.8,109 96.3,109 96.3,118.4 96.3,127.9      105.8,127.9 105.8,137.4 115.2,137.4 115.2,127.9    "/>
			<rect x="96.3" y="80.6" class="st4" width="9.5" height="9.5"/>
			<polygon class="st2" points="86.8,80.6 96.3,80.6 105.8,80.6 105.8,90 115.2,90 115.2,99.5 124.7,99.5 124.7,109 134.2,109      134.2,99.5 143.6,99.5 143.6,90 153.1,90 153.1,80.6 143.6,80.6 134.2,80.6 134.2,71.1 124.7,71.1 115.2,71.1 105.8,71.1      105.8,61.6 96.3,61.6 86.8,61.6 77.4,61.6 77.4,71.1 86.8,71.1    "/>
			<polygon class="st5" points="86.8,241.5 86.8,232 96.3,232 96.3,222.5 105.8,222.5 115.2,222.5 115.2,213.1 124.7,213.1      124.7,203.6 134.2,203.6 143.6,203.6 143.6,194.1 153.1,194.1 153.1,184.7 162.5,184.7 162.5,175.2 172,175.2 172,165.7      181.5,165.7 181.5,156.3 190.9,156.3 190.9,146.8 200.4,146.8 200.4,137.4 209.9,137.4 219.3,137.4 219.3,127.9 228.8,127.9      228.8,118.4 238.3,118.4 238.3,109 247.7,109 257.2,109 257.2,99.5 266.7,99.5 266.7,90 276.1,90 276.1,80.6 285.6,80.6      285.6,71.1 295.1,71.1 295.1,61.6 304.5,61.6 314,61.6 314,52.2 304.5,52.2 295.1,52.2 285.6,52.2 276.1,52.2 276.1,61.6      266.7,61.6 257.2,61.6 247.7,61.6 238.3,61.6 228.8,61.6 228.8,71.1 219.3,71.1 209.9,71.1 200.4,71.1 190.9,71.1 190.9,80.6      181.5,80.6 172,80.6 162.5,80.6 153.1,80.6 153.1,90 143.6,90 143.6,99.5 134.2,99.5 134.2,109 134.2,118.4 124.7,118.4      124.7,127.9 115.2,127.9 115.2,137.4 115.2,146.8 115.2,156.3 115.2,165.7 105.8,165.7 105.8,175.2 105.8,184.7 96.3,184.7      96.3,194.1 96.3,203.6 86.8,203.6 86.8,213.1 77.4,213.1 77.4,222.5 77.4,232 67.9,232 67.9,241.5 67.9,250.9 77.4,250.9      77.4,241.5    "/>
			<rect x="67.9" y="250.9" class="st3" width="9.5" height="9.5"/>
			<rect x="67.9" y="61.6" class="st6" width="9.5" height="9.5"/>
			<rect x="67.9" y="52.2" class="st2" width="9.5" height="9.5"/>
			<rect x="58.4" y="250.9" class="st5" width="9.5" height="9.5"/>
		</g>
		<g>
			<path d="M342.4,33.2h-9.5h-9.5H314h-9.5v9.5h-9.5h-9.5h-9.5h-9.5v9.5h-9.5h-9.5h-9.5h-9.5h-9.5v9.5h-9.5h-9.5h-9.5h-9.5v9.5H172     h-9.5h-9.5h-9.5v-9.5h-9.5h-9.5h-9.5v-9.5h-9.5h-9.5h-9.5v-9.5h-9.5h-9.5h-9.5v9.5v9.5v9.5v9.5h9.5V90v9.5h9.5v9.5v9.5h9.5v9.5     v9.5h9.5v9.5h9.5v9.5h-9.5v9.5v9.5h-9.5v9.5v9.5h-9.5v9.5h-9.5v9.5v9.5h-9.5v9.5v9.5H49v9.5v9.5v9.5h9.5h9.5h9.5h9.5v-9.5h9.5     h9.5h9.5v-9.5h9.5h9.5h9.5v-9.5h9.5v9.5h9.5v9.5h9.5h9.5h9.5v9.5h9.5h9.5h9.5h9.5h9.5h9.5h9.5h9.5h9.5h9.5h9.5h9.5h9.5h9.5h9.5     h9.5h9.5v-9.5v-9.5v-9.5h-9.5V232h-9.5v-9.5h-9.5v-9.5H314v-9.5h-9.5v-9.5h9.5v-9.5h9.5v-9.5v-9.5v-9.5v-9.5v-9.5h9.5v-9.5v-9.5     V109v-9.5V90v-9.5h9.5v-9.5v-9.5h9.5v-9.5v-9.5v-9.5H342.4z M342.4,52.2h-9.5v9.5v9.5h-9.5v9.5V90v9.5v9.5v9.5v9.5H314v9.5v9.5     v9.5v9.5v9.5h-9.5v9.5h-9.5v9.5v9.5v9.5h9.5v9.5h9.5v9.5h9.5v9.5h9.5v9.5h9.5v9.5h-9.5h-9.5H314h-9.5h-9.5h-9.5h-9.5h-9.5h-9.5     h-9.5h-9.5h-9.5h-9.5h-9.5h-9.5v-9.5h-9.5h-9.5H172v-9.5h-9.5V232h-9.5h-9.5h-9.5v9.5h-9.5h-9.5h-9.5v9.5h-9.5h-9.5h-9.5v9.5     h-9.5h-9.5v-9.5h9.5v-9.5V232h9.5v-9.5v-9.5h9.5v-9.5h9.5v-9.5v-9.5h9.5v-9.5v-9.5h9.5v-9.5v-9.5v-9.5h-9.5v-9.5h-9.5v-9.5V109     h-9.5v-9.5V90h-9.5v-9.5v-9.5h-9.5v-9.5v-9.5h9.5v9.5h9.5h9.5h9.5v9.5h9.5h9.5h9.5v9.5h9.5h9.5h9.5h9.5h9.5h9.5v-9.5h9.5h9.5h9.5     h9.5v-9.5h9.5h9.5h9.5h9.5h9.5v-9.5h9.5h9.5h9.5h9.5v-9.5h9.5h9.5h9.5V52.2z"/>
			<rect x="332.9" y="250.9" class="st2" width="9.5" height="9.5"/>
			<polygon class="st3" points="323.4,42.7 323.4,52.2 314,52.2 314,61.6 304.5,61.6 295.1,61.6 295.1,71.1 285.6,71.1 285.6,80.6      276.1,80.6 276.1,90 266.7,90 266.7,99.5 257.2,99.5 257.2,109 247.7,109 238.3,109 238.3,118.4 228.8,118.4 228.8,127.9      238.3,127.9 238.3,137.4 247.7,137.4 247.7,146.8 257.2,146.8 257.2,156.3 266.7,156.3 266.7,165.7 276.1,165.7 276.1,175.2      285.6,175.2 285.6,184.7 295.1,184.7 304.5,184.7 304.5,175.2 314,175.2 314,165.7 314,156.3 314,146.8 314,137.4 314,127.9      323.4,127.9 323.4,118.4 323.4,109 323.4,99.5 323.4,90 323.4,80.6 323.4,71.1 332.9,71.1 332.9,61.6 332.9,52.2 342.4,52.2      342.4,42.7 332.9,42.7    "/>
			<polygon class="st4" points="314,250.9 314,241.5 304.5,241.5 304.5,232 295.1,232 285.6,232 285.6,222.5 276.1,222.5      276.1,213.1 266.7,213.1 266.7,203.6 257.2,203.6 247.7,203.6 247.7,194.1 238.3,194.1 238.3,184.7 228.8,184.7 228.8,175.2      219.3,175.2 209.9,175.2 209.9,165.7 200.4,165.7 200.4,156.3 190.9,156.3 181.5,156.3 181.5,165.7 172,165.7 172,175.2      162.5,175.2 162.5,184.7 153.1,184.7 153.1,194.1 143.6,194.1 143.6,203.6 134.2,203.6 134.2,213.1 143.6,213.1 143.6,222.5      153.1,222.5 153.1,232 162.5,232 162.5,241.5 172,241.5 172,250.9 181.5,250.9 190.9,250.9 200.4,250.9 200.4,260.4 209.9,260.4      219.3,260.4 228.8,260.4 238.3,260.4 247.7,260.4 257.2,260.4 266.7,260.4 276.1,260.4 285.6,260.4 295.1,260.4 304.5,260.4      314,260.4 323.4,260.4 332.9,260.4 332.9,250.9 323.4,250.9    "/>
			<rect x="314" y="42.7" class="st5" width="9.5" height="9.5"/>
			<polygon class="st2" points="285.6,175.2 276.1,175.2 276.1,165.7 266.7,165.7 266.7,156.3 257.2,156.3 257.2,146.8 247.7,146.8      247.7,137.4 238.3,137.4 238.3,127.9 228.8,127.9 219.3,127.9 219.3,137.4 209.9,137.4 200.4,137.4 200.4,146.8 190.9,146.8      190.9,156.3 200.4,156.3 200.4,165.7 209.9,165.7 209.9,175.2 219.3,175.2 228.8,175.2 228.8,184.7 238.3,184.7 238.3,194.1      247.7,194.1 247.7,203.6 257.2,203.6 266.7,203.6 266.7,213.1 276.1,213.1 276.1,222.5 285.6,222.5 285.6,232 295.1,232      304.5,232 304.5,241.5 314,241.5 314,250.9 323.4,250.9 332.9,250.9 332.9,241.5 323.4,241.5 323.4,232 314,232 314,222.5      304.5,222.5 304.5,213.1 295.1,213.1 295.1,203.6 295.1,194.1 295.1,184.7 285.6,184.7    "/>
			<polygon class="st3" points="143.6,222.5 143.6,213.1 134.2,213.1 134.2,203.6 124.7,203.6 124.7,213.1 115.2,213.1 115.2,222.5      105.8,222.5 96.3,222.5 96.3,232 86.8,232 86.8,241.5 77.4,241.5 77.4,250.9 86.8,250.9 96.3,250.9 105.8,250.9 105.8,241.5      115.2,241.5 124.7,241.5 134.2,241.5 134.2,232 143.6,232 153.1,232 153.1,222.5    "/>
			<polygon class="st6" points="124.7,127.9 124.7,118.4 134.2,118.4 134.2,109 124.7,109 124.7,99.5 115.2,99.5 115.2,90 105.8,90      96.3,90 96.3,80.6 86.8,80.6 86.8,71.1 77.4,71.1 77.4,80.6 77.4,90 86.8,90 86.8,99.5 86.8,109 96.3,109 96.3,118.4 96.3,127.9      105.8,127.9 105.8,137.4 115.2,137.4 115.2,127.9    "/>
			<rect x="96.3" y="80.6" class="st4" width="9.5" height="9.5"/>
			<polygon class="st2" points="86.8,80.6 96.3,80.6 105.8,80.6 105.8,90 115.2,90 115.2,99.5 124.7,99.5 124.7,109 134.2,109      134.2,99.5 143.6,99.5 143.6,90 153.1,90 153.1,80.6 143.6,80.6 134.2,80.6 134.2,71.1 124.7,71.1 115.2,71.1 105.8,71.1      105.8,61.6 96.3,61.6 86.8,61.6 77.4,61.6 77.4,71.1 86.8,71.1    "/>
			<polygon class="st5" points="86.8,241.5 86.8,232 96.3,232 96.3,222.5 105.8,222.5 115.2,222.5 115.2,213.1 124.7,213.1      124.7,203.6 134.2,203.6 143.6,203.6 143.6,194.1 153.1,194.1 153.1,184.7 162.5,184.7 162.5,175.2 172,175.2 172,165.7      181.5,165.7 181.5,156.3 190.9,156.3 190.9,146.8 200.4,146.8 200.4,137.4 209.9,137.4 219.3,137.4 219.3,127.9 228.8,127.9      228.8,118.4 238.3,118.4 238.3,109 247.7,109 257.2,109 257.2,99.5 266.7,99.5 266.7,90 276.1,90 276.1,80.6 285.6,80.6      285.6,71.1 295.1,71.1 295.1,61.6 304.5,61.6 314,61.6 314,52.2 304.5,52.2 295.1,52.2 285.6,52.2 276.1,52.2 276.1,61.6      266.7,61.6 257.2,61.6 247.7,61.6 238.3,61.6 228.8,61.6 228.8,71.1 219.3,71.1 209.9,71.1 200.4,71.1 190.9,71.1 190.9,80.6      181.5,80.6 172,80.6 162.5,80.6 153.1,80.6 153.1,90 143.6,90 143.6,99.5 134.2,99.5 134.2,109 134.2,118.4 124.7,118.4      124.7,127.9 115.2,127.9 115.2,137.4 115.2,146.8 115.2,156.3 115.2,165.7 105.8,165.7 105.8,175.2 105.8,184.7 96.3,184.7      96.3,194.1 96.3,203.6 86.8,203.6 86.8,213.1 77.4,213.1 77.4,222.5 77.4,232 67.9,232 67.9,241.5 67.9,250.9 77.4,250.9      77.4,241.5    "/>
			<rect x="67.9" y="250.9" class="st3" width="9.5" height="9.5"/>
			<rect x="67.9" y="61.6" class="st6" width="9.5" height="9.5"/>
			<rect x="67.9" y="52.2" class="st2" width="9.5" height="9.5"/>
			<rect x="58.4" y="250.9" class="st5" width="9.5" height="9.5"/>
		</g>
	</g>
</g>
</svg>